<svg width="200" height="48" viewBox="0 0 200 48" fill="none" xmlns="http://www.w3.org/2000/svg">
<path d="M40.516 22.208V22.976C40.516 24.512 40.0093 25.7707 38.996 26.752C37.9827 27.7227 36.66 28.208 35.028 28.208C33.3 28.208 31.8707 27.648 30.74 26.528C29.62 25.408 29.06 24.032 29.06 22.4C29.06 20.7787 29.62 19.408 30.74 18.288C31.8707 17.1573 33.268 16.592 34.932 16.592C35.9773 16.592 36.932 16.832 37.796 17.312C38.66 17.792 39.332 18.4373 39.812 19.248L38.228 20.16C37.9293 19.6267 37.4867 19.2 36.9 18.88C36.3133 18.5493 35.6573 18.384 34.932 18.384C33.7587 18.384 32.7933 18.768 32.036 19.536C31.2787 20.304 30.9 21.264 30.9 22.416C30.9 23.568 31.2787 24.5227 32.036 25.28C32.804 26.0373 33.8067 26.416 35.044 26.416C36.036 26.416 36.8413 26.1867 37.46 25.728C38.0893 25.2587 38.4893 24.6347 38.66 23.856H34.916V22.208H40.516ZM43.4461 24.736C43.5741 25.344 43.8675 25.8133 44.3261 26.144C44.7848 26.464 45.3448 26.624 46.0061 26.624C46.9235 26.624 47.6115 26.2933 48.0701 25.632L49.4941 26.464C48.7048 27.6267 47.5368 28.208 45.9901 28.208C44.6888 28.208 43.6381 27.8133 42.8381 27.024C42.0381 26.224 41.6381 25.216 41.6381 24C41.6381 22.8053 42.0328 21.808 42.8221 21.008C43.6115 20.1973 44.6248 19.792 45.8621 19.792C47.0355 19.792 47.9955 20.2027 48.7421 21.024C49.4995 21.8453 49.8781 22.8427 49.8781 24.016C49.8781 24.1973 49.8568 24.4373 49.8141 24.736H43.4461ZM43.4301 23.328H48.1341C48.0168 22.6773 47.7448 22.1867 47.3181 21.856C46.9021 21.5253 46.4115 21.36 45.8461 21.36C45.2061 21.36 44.6728 21.536 44.2461 21.888C43.8195 22.24 43.5475 22.72 43.4301 23.328ZM55.6126 21.664H53.6286V25.504C53.6286 25.8347 53.7033 26.0747 53.8526 26.224C54.002 26.3627 54.2206 26.4427 54.5086 26.464C54.8073 26.4747 55.1753 26.4693 55.6126 26.448V28C54.29 28.16 53.3406 28.048 52.7646 27.664C52.1886 27.2693 51.9006 26.5493 51.9006 25.504V21.664H50.4286V20H51.9006V18.272L53.6286 17.76V20H55.6126V21.664ZM66.666 28.208C64.9807 28.208 63.5833 27.6533 62.474 26.544C61.3647 25.424 60.81 24.0427 60.81 22.4C60.81 20.7573 61.3647 19.3813 62.474 18.272C63.5833 17.152 64.9807 16.592 66.666 16.592C67.6793 16.592 68.6127 16.832 69.466 17.312C70.33 17.792 71.002 18.4427 71.482 19.264L69.882 20.192C69.5833 19.6373 69.146 19.2 68.57 18.88C68.0047 18.5493 67.37 18.384 66.666 18.384C65.4713 18.384 64.5007 18.7627 63.754 19.52C63.018 20.2773 62.65 21.2373 62.65 22.4C62.65 23.5627 63.018 24.5227 63.754 25.28C64.5007 26.0373 65.4713 26.416 66.666 26.416C67.37 26.416 68.01 26.256 68.586 25.936C69.162 25.6053 69.594 25.1627 69.882 24.608L71.482 25.52C71.0127 26.3413 70.346 26.9973 69.482 27.488C68.6287 27.968 67.69 28.208 66.666 28.208ZM78.3688 20H80.0968V28H78.3688V26.976C77.8461 27.7973 77.0194 28.208 75.8888 28.208C74.9714 28.208 74.2301 27.9147 73.6648 27.328C73.0994 26.7413 72.8168 25.936 72.8168 24.912V20H74.5448V24.736C74.5448 25.3333 74.7048 25.792 75.0248 26.112C75.3448 26.432 75.7821 26.592 76.3368 26.592C76.9448 26.592 77.4354 26.4053 77.8088 26.032C78.1821 25.648 78.3688 25.0667 78.3688 24.288V20ZM83.6225 22.208C83.6225 22.4747 83.7665 22.688 84.0545 22.848C84.3532 22.9973 84.7105 23.1307 85.1265 23.248C85.5532 23.3547 85.9798 23.4827 86.4065 23.632C86.8332 23.7813 87.1905 24.0373 87.4785 24.4C87.7772 24.752 87.9265 25.2 87.9265 25.744C87.9265 26.512 87.6278 27.1147 87.0305 27.552C86.4438 27.9893 85.7025 28.208 84.8065 28.208C84.0172 28.208 83.3398 28.0427 82.7745 27.712C82.2092 27.3813 81.7985 26.9227 81.5425 26.336L83.0305 25.472C83.3078 26.24 83.8998 26.624 84.8065 26.624C85.7132 26.624 86.1665 26.3253 86.1665 25.728C86.1665 25.472 86.0172 25.264 85.7185 25.104C85.4305 24.944 85.0732 24.8107 84.6465 24.704C84.2305 24.5867 83.8092 24.4533 83.3825 24.304C82.9558 24.1547 82.5932 23.9093 82.2945 23.568C82.0065 23.216 81.8625 22.7733 81.8625 22.24C81.8625 21.504 82.1398 20.912 82.6945 20.464C83.2598 20.016 83.9585 19.792 84.7905 19.792C85.4518 19.792 86.0385 19.9413 86.5505 20.24C87.0732 20.528 87.4732 20.9333 87.7505 21.456L86.2945 22.272C86.0172 21.664 85.5158 21.36 84.7905 21.36C84.4598 21.36 84.1825 21.4347 83.9585 21.584C83.7345 21.7227 83.6225 21.9307 83.6225 22.208ZM93.597 21.664H91.613V25.504C91.613 25.8347 91.6877 26.0747 91.837 26.224C91.9863 26.3627 92.205 26.4427 92.493 26.464C92.7917 26.4747 93.1597 26.4693 93.597 26.448V28C92.2743 28.16 91.325 28.048 90.749 27.664C90.173 27.2693 89.885 26.5493 89.885 25.504V21.664H88.413V20H89.885V18.272L91.613 17.76V20H93.597V21.664ZM98.6121 28.208C97.4388 28.208 96.4415 27.8027 95.6201 26.992C94.7988 26.1813 94.3881 25.184 94.3881 24C94.3881 22.816 94.7988 21.8187 95.6201 21.008C96.4415 20.1973 97.4388 19.792 98.6121 19.792C99.7961 19.792 100.793 20.1973 101.604 21.008C102.425 21.8187 102.836 22.816 102.836 24C102.836 25.184 102.425 26.1813 101.604 26.992C100.793 27.8027 99.7961 28.208 98.6121 28.208ZM96.8361 25.808C97.3161 26.288 97.9081 26.528 98.6121 26.528C99.3161 26.528 99.9081 26.288 100.388 25.808C100.868 25.328 101.108 24.7253 101.108 24C101.108 23.2747 100.868 22.672 100.388 22.192C99.9081 21.712 99.3161 21.472 98.6121 21.472C97.9081 21.472 97.3161 21.712 96.8361 22.192C96.3561 22.672 96.1161 23.2747 96.1161 24C96.1161 24.7253 96.3561 25.328 96.8361 25.808ZM113.135 19.792C114.041 19.792 114.772 20.0853 115.327 20.672C115.881 21.2587 116.159 22.048 116.159 23.04V28H114.431V23.152C114.431 22.5973 114.292 22.1707 114.015 21.872C113.737 21.5627 113.359 21.408 112.879 21.408C112.345 21.408 111.919 21.584 111.599 21.936C111.289 22.288 111.135 22.816 111.135 23.52V28H109.407V23.152C109.407 22.5973 109.273 22.1707 109.007 21.872C108.751 21.5627 108.383 21.408 107.903 21.408C107.38 21.408 106.953 21.5893 106.623 21.952C106.292 22.304 106.127 22.8267 106.127 23.52V28H104.399V20H106.127V20.96C106.639 20.1813 107.401 19.792 108.415 19.792C109.439 19.792 110.196 20.2133 110.687 21.056C111.22 20.2133 112.036 19.792 113.135 19.792ZM126.248 16.8C127.304 16.8 128.184 17.152 128.888 17.856C129.603 18.56 129.96 19.4347 129.96 20.48C129.96 21.5147 129.603 22.3893 128.888 23.104C128.184 23.808 127.304 24.16 126.248 24.16H123.96V28H122.12V16.8H126.248ZM126.248 22.432C126.792 22.432 127.24 22.2507 127.592 21.888C127.944 21.5147 128.12 21.0453 128.12 20.48C128.12 19.9147 127.944 19.4507 127.592 19.088C127.24 18.7147 126.792 18.528 126.248 18.528H123.96V22.432H126.248ZM133.017 21.344C133.455 20.352 134.276 19.856 135.481 19.856V21.728C134.82 21.6853 134.244 21.8453 133.753 22.208C133.263 22.56 133.017 23.1467 133.017 23.968V28H131.289V20H133.017V21.344ZM138.39 18.48C138.177 18.6933 137.921 18.8 137.622 18.8C137.323 18.8 137.062 18.6933 136.838 18.48C136.625 18.256 136.518 17.9947 136.518 17.696C136.518 17.3973 136.625 17.1413 136.838 16.928C137.051 16.704 137.313 16.592 137.622 16.592C137.931 16.592 138.193 16.704 138.406 16.928C138.619 17.1413 138.726 17.3973 138.726 17.696C138.726 17.9947 138.614 18.256 138.39 18.48ZM136.758 28V20H138.486V28H136.758ZM144.268 28.208C143.063 28.208 142.055 27.8027 141.244 26.992C140.444 26.1813 140.044 25.184 140.044 24C140.044 22.8053 140.444 21.808 141.244 21.008C142.055 20.1973 143.063 19.792 144.268 19.792C145.047 19.792 145.756 19.9787 146.396 20.352C147.036 20.7253 147.516 21.2267 147.836 21.856L146.348 22.72C146.167 22.336 145.89 22.0373 145.516 21.824C145.154 21.6 144.732 21.488 144.252 21.488C143.548 21.488 142.956 21.728 142.476 22.208C142.007 22.688 141.772 23.2853 141.772 24C141.772 24.7147 142.007 25.312 142.476 25.792C142.956 26.272 143.548 26.512 144.252 26.512C144.722 26.512 145.143 26.4 145.516 26.176C145.9 25.952 146.188 25.6533 146.38 25.28L147.868 26.128C147.527 26.768 147.036 27.2747 146.396 27.648C145.756 28.0213 145.047 28.208 144.268 28.208ZM150.749 18.48C150.536 18.6933 150.28 18.8 149.981 18.8C149.683 18.8 149.421 18.6933 149.197 18.48C148.984 18.256 148.877 17.9947 148.877 17.696C148.877 17.3973 148.984 17.1413 149.197 16.928C149.411 16.704 149.672 16.592 149.981 16.592C150.291 16.592 150.552 16.704 150.765 16.928C150.979 17.1413 151.085 17.3973 151.085 17.696C151.085 17.9947 150.973 18.256 150.749 18.48ZM149.117 28V20H150.845V28H149.117ZM157.06 19.792C157.977 19.792 158.718 20.0853 159.284 20.672C159.849 21.2587 160.132 22.064 160.132 23.088V28H158.404V23.264C158.404 22.6667 158.244 22.208 157.924 21.888C157.604 21.568 157.166 21.408 156.612 21.408C156.004 21.408 155.513 21.6 155.14 21.984C154.766 22.3573 154.58 22.9333 154.58 23.712V28H152.852V20H154.58V21.024C155.102 20.2027 155.929 19.792 157.06 19.792ZM168.36 20H170.056V27.632C170.056 28.848 169.656 29.7813 168.856 30.432C168.056 31.0827 167.086 31.408 165.944 31.408C164.099 31.408 162.835 30.7627 162.152 29.472L163.64 28.608C164.056 29.4293 164.835 29.84 165.976 29.84C166.723 29.84 167.304 29.6427 167.72 29.248C168.147 28.864 168.36 28.3253 168.36 27.632V26.656C167.71 27.584 166.782 28.048 165.576 28.048C164.446 28.048 163.491 27.648 162.712 26.848C161.934 26.0373 161.544 25.0613 161.544 23.92C161.544 22.7787 161.934 21.808 162.712 21.008C163.491 20.1973 164.446 19.792 165.576 19.792C166.782 19.792 167.71 20.256 168.36 21.184V20ZM163.992 25.712C164.483 26.192 165.091 26.432 165.816 26.432C166.542 26.432 167.144 26.192 167.624 25.712C168.115 25.232 168.36 24.6347 168.36 23.92C168.36 23.2053 168.115 22.608 167.624 22.128C167.144 21.648 166.542 21.408 165.816 21.408C165.091 21.408 164.483 21.648 163.992 22.128C163.512 22.608 163.272 23.2053 163.272 23.92C163.272 24.6347 163.512 25.232 163.992 25.712Z" fill="#0065FE"/>
<rect x="0.5" y="0.5" width="199" height="47" rx="23.5" stroke="#0065FE"/>
</svg>
