<svg width="194" height="320" viewBox="0 0 194 320" fill="none" xmlns="http://www.w3.org/2000/svg">
<path d="M19.527 12.28H8.32703V18.92H19.207V24.2H8.32703V35H2.80703V7H19.527V12.28ZM28.4692 18.44C28.9492 17.16 29.7359 16.2 30.8292 15.56C31.9492 14.92 33.1892 14.6 34.5492 14.6V20.36C32.9759 20.1733 31.5626 20.4933 30.3092 21.32C29.0826 22.1467 28.4692 23.52 28.4692 25.44V35H23.3092V15H28.4692V18.44ZM41.1848 27.12C41.8782 29.6267 43.7582 30.88 46.8248 30.88C48.7982 30.88 50.2915 30.2133 51.3048 28.88L55.4648 31.28C53.4915 34.1333 50.5848 35.56 46.7448 35.56C43.4382 35.56 40.7848 34.56 38.7848 32.56C36.7848 30.56 35.7848 28.04 35.7848 25C35.7848 21.9867 36.7715 19.48 38.7448 17.48C40.7182 15.4533 43.2515 14.44 46.3448 14.44C49.2782 14.44 51.6915 15.4533 53.5848 17.48C55.5048 19.5067 56.4648 22.0133 56.4648 25C56.4648 25.6667 56.3982 26.3733 56.2648 27.12H41.1848ZM41.1048 23.12H51.3048C51.0115 21.76 50.3982 20.7467 49.4648 20.08C48.5582 19.4133 47.5182 19.08 46.3448 19.08C44.9582 19.08 43.8115 19.44 42.9048 20.16C41.9982 20.8533 41.3982 21.84 41.1048 23.12ZM64.2708 27.12C64.9641 29.6267 66.8441 30.88 69.9108 30.88C71.8841 30.88 73.3774 30.2133 74.3908 28.88L78.5508 31.28C76.5774 34.1333 73.6708 35.56 69.8308 35.56C66.5241 35.56 63.8708 34.56 61.8708 32.56C59.8708 30.56 58.8708 28.04 58.8708 25C58.8708 21.9867 59.8574 19.48 61.8308 17.48C63.8041 15.4533 66.3374 14.44 69.4308 14.44C72.3641 14.44 74.7774 15.4533 76.6708 17.48C78.5908 19.5067 79.5508 22.0133 79.5508 25C79.5508 25.6667 79.4841 26.3733 79.3508 27.12H64.2708ZM64.1908 23.12H74.3908C74.0974 21.76 73.4841 20.7467 72.5508 20.08C71.6441 19.4133 70.6041 19.08 69.4308 19.08C68.0441 19.08 66.8974 19.44 65.9908 20.16C65.0841 20.8533 64.4841 21.84 64.1908 23.12Z" fill="#141414"/>
<path d="M9.685 64.76H3.485V69.3H9.425V71.06H3.485V77H1.625V63H9.685V64.76ZM13.4975 68.68C14.0708 67.44 15.1108 66.82 16.6175 66.82V68.64C15.7642 68.6 15.0308 68.8267 14.4175 69.32C13.8042 69.8133 13.4975 70.6067 13.4975 71.7V77H11.7575V67H13.4975V68.68ZM18.9931 72.8C19.1665 73.6933 19.5731 74.3867 20.2131 74.88C20.8665 75.3733 21.6665 75.62 22.6131 75.62C23.9331 75.62 24.8931 75.1333 25.4931 74.16L26.9731 75C25.9998 76.5067 24.5331 77.26 22.5731 77.26C20.9865 77.26 19.6931 76.7667 18.6931 75.78C17.7065 74.78 17.2131 73.52 17.2131 72C17.2131 70.4933 17.6998 69.24 18.6731 68.24C19.6465 67.24 20.9065 66.74 22.4531 66.74C23.9198 66.74 25.1131 67.26 26.0331 68.3C26.9665 69.3267 27.4331 70.5667 27.4331 72.02C27.4331 72.2733 27.4131 72.5333 27.3731 72.8H18.9931ZM22.4531 68.38C21.5198 68.38 20.7465 68.6467 20.1331 69.18C19.5198 69.7 19.1398 70.4 18.9931 71.28H25.6731C25.5265 70.3333 25.1531 69.6133 24.5531 69.12C23.9531 68.6267 23.2531 68.38 22.4531 68.38ZM30.6338 72.8C30.8071 73.6933 31.2138 74.3867 31.8538 74.88C32.5071 75.3733 33.3071 75.62 34.2538 75.62C35.5738 75.62 36.5338 75.1333 37.1338 74.16L38.6138 75C37.6404 76.5067 36.1738 77.26 34.2138 77.26C32.6271 77.26 31.3338 76.7667 30.3338 75.78C29.3471 74.78 28.8538 73.52 28.8538 72C28.8538 70.4933 29.3404 69.24 30.3138 68.24C31.2871 67.24 32.5471 66.74 34.0938 66.74C35.5604 66.74 36.7538 67.26 37.6738 68.3C38.6071 69.3267 39.0738 70.5667 39.0738 72.02C39.0738 72.2733 39.0538 72.5333 39.0138 72.8H30.6338ZM34.0938 68.38C33.1604 68.38 32.3871 68.6467 31.7738 69.18C31.1604 69.7 30.7804 70.4 30.6338 71.28H37.3138C37.1671 70.3333 36.7938 69.6133 36.1938 69.12C35.5938 68.6267 34.8938 68.38 34.0938 68.38ZM51.5939 66.74C52.9939 66.74 54.1872 67.2533 55.1739 68.28C56.1606 69.2933 56.6539 70.5333 56.6539 72C56.6539 73.4667 56.1606 74.7133 55.1739 75.74C54.1872 76.7533 52.9939 77.26 51.5939 77.26C49.9406 77.26 48.6806 76.6 47.8139 75.28V81H46.0739V67H47.8139V68.72C48.6806 67.4 49.9406 66.74 51.5939 66.74ZM51.3739 75.58C52.3739 75.58 53.2139 75.24 53.8939 74.56C54.5739 73.8667 54.9139 73.0133 54.9139 72C54.9139 70.9867 54.5739 70.14 53.8939 69.46C53.2139 68.7667 52.3739 68.42 51.3739 68.42C50.3606 68.42 49.5139 68.7667 48.8339 69.46C48.1539 70.14 47.8139 70.9867 47.8139 72C47.8139 73.0133 48.1539 73.8667 48.8339 74.56C49.5139 75.24 50.3606 75.58 51.3739 75.58ZM58.7302 77V62.4H60.4702V77H58.7302ZM71.4047 67H73.1447V77H71.4047V75.28C70.538 76.6 69.278 77.26 67.6247 77.26C66.2247 77.26 65.0314 76.7533 64.0447 75.74C63.058 74.7133 62.5647 73.4667 62.5647 72C62.5647 70.5333 63.058 69.2933 64.0447 68.28C65.0314 67.2533 66.2247 66.74 67.6247 66.74C69.278 66.74 70.538 67.4 71.4047 68.72V67ZM67.8447 75.58C68.858 75.58 69.7047 75.24 70.3847 74.56C71.0647 73.8667 71.4047 73.0133 71.4047 72C71.4047 70.9867 71.0647 70.14 70.3847 69.46C69.7047 68.7667 68.858 68.42 67.8447 68.42C66.8447 68.42 66.0047 68.7667 65.3247 69.46C64.6447 70.14 64.3047 70.9867 64.3047 72C64.3047 73.0133 64.6447 73.8667 65.3247 74.56C66.0047 75.24 66.8447 75.58 67.8447 75.58ZM80.7609 66.74C81.9343 66.74 82.8743 67.1133 83.5809 67.86C84.2876 68.5933 84.6409 69.5933 84.6409 70.86V77H82.9009V70.96C82.9009 70.1467 82.6809 69.52 82.2409 69.08C81.8009 68.6267 81.1943 68.4 80.4209 68.4C79.5543 68.4 78.8543 68.6733 78.3209 69.22C77.7876 69.7533 77.5209 70.58 77.5209 71.7V77H75.7809V67H77.5209V68.44C78.2276 67.3067 79.3076 66.74 80.7609 66.74ZM97.21 64.42C95.45 64.2733 94.57 65.0333 94.57 66.7V67H97.21V68.68H94.57V77H92.83V68.68H91.23V67H92.83V66.7C92.83 65.3533 93.2033 64.3333 93.95 63.64C94.71 62.9467 95.7967 62.6467 97.21 62.74V64.42ZM106.428 75.74C105.401 76.7533 104.155 77.26 102.688 77.26C101.221 77.26 99.9746 76.7533 98.948 75.74C97.9346 74.7267 97.428 73.48 97.428 72C97.428 70.52 97.9346 69.2733 98.948 68.26C99.9746 67.2467 101.221 66.74 102.688 66.74C104.155 66.74 105.401 67.2467 106.428 68.26C107.455 69.2733 107.968 70.52 107.968 72C107.968 73.48 107.455 74.7267 106.428 75.74ZM102.688 75.56C103.688 75.56 104.528 75.22 105.208 74.54C105.888 73.86 106.228 73.0133 106.228 72C106.228 70.9867 105.888 70.14 105.208 69.46C104.528 68.78 103.688 68.44 102.688 68.44C101.701 68.44 100.868 68.78 100.188 69.46C99.508 70.14 99.168 70.9867 99.168 72C99.168 73.0133 99.508 73.86 100.188 74.54C100.868 75.22 101.701 75.56 102.688 75.56ZM111.759 68.68C112.333 67.44 113.373 66.82 114.879 66.82V68.64C114.026 68.6 113.293 68.8267 112.679 69.32C112.066 69.8133 111.759 70.6067 111.759 71.7V77H110.019V67H111.759V68.68ZM129.862 67H131.602V77H129.862V75.28C128.995 76.6 127.735 77.26 126.082 77.26C124.682 77.26 123.488 76.7533 122.502 75.74C121.515 74.7133 121.022 73.4667 121.022 72C121.022 70.5333 121.515 69.2933 122.502 68.28C123.488 67.2533 124.682 66.74 126.082 66.74C127.735 66.74 128.995 67.4 129.862 68.72V67ZM126.302 75.58C127.315 75.58 128.162 75.24 128.842 74.56C129.522 73.8667 129.862 73.0133 129.862 72C129.862 70.9867 129.522 70.14 128.842 69.46C128.162 68.7667 127.315 68.42 126.302 68.42C125.302 68.42 124.462 68.7667 123.782 69.46C123.102 70.14 122.762 70.9867 122.762 72C122.762 73.0133 123.102 73.8667 123.782 74.56C124.462 75.24 125.302 75.58 126.302 75.58ZM134.238 77V62.4H135.978V77H134.238ZM138.632 77V62.4H140.373V77H138.632ZM154.927 67H156.667V77H154.927V75.56C154.22 76.6933 153.14 77.26 151.687 77.26C150.514 77.26 149.574 76.8933 148.867 76.16C148.16 75.4133 147.807 74.4067 147.807 73.14V67H149.547V73.04C149.547 73.8533 149.767 74.4867 150.207 74.94C150.647 75.38 151.254 75.6 152.027 75.6C152.894 75.6 153.594 75.3333 154.127 74.8C154.66 74.2533 154.927 73.42 154.927 72.3V67ZM160.797 69.7C160.797 70.0867 160.99 70.4 161.377 70.64C161.763 70.8667 162.23 71.0533 162.777 71.2C163.323 71.3333 163.87 71.4933 164.417 71.68C164.963 71.8533 165.43 72.16 165.817 72.6C166.203 73.0267 166.397 73.58 166.397 74.26C166.397 75.1667 166.043 75.8933 165.337 76.44C164.643 76.9867 163.75 77.26 162.657 77.26C161.683 77.26 160.85 77.0467 160.157 76.62C159.463 76.1933 158.97 75.6267 158.677 74.92L160.177 74.06C160.337 74.54 160.637 74.92 161.077 75.2C161.517 75.48 162.043 75.62 162.657 75.62C163.23 75.62 163.703 75.5133 164.077 75.3C164.45 75.0733 164.637 74.7267 164.637 74.26C164.637 73.8733 164.443 73.5667 164.057 73.34C163.67 73.1 163.203 72.9133 162.657 72.78C162.11 72.6333 161.563 72.4667 161.017 72.28C160.47 72.0933 160.003 71.7867 159.617 71.36C159.23 70.9333 159.037 70.3867 159.037 69.72C159.037 68.8533 159.37 68.14 160.037 67.58C160.717 67.02 161.563 66.74 162.577 66.74C163.39 66.74 164.11 66.9267 164.737 67.3C165.377 67.66 165.857 68.1667 166.177 68.82L164.717 69.64C164.357 68.7867 163.643 68.36 162.577 68.36C162.083 68.36 161.663 68.48 161.317 68.72C160.97 68.9467 160.797 69.2733 160.797 69.7ZM169.403 72.8C169.577 73.6933 169.983 74.3867 170.623 74.88C171.277 75.3733 172.077 75.62 173.023 75.62C174.343 75.62 175.303 75.1333 175.903 74.16L177.383 75C176.41 76.5067 174.943 77.26 172.983 77.26C171.397 77.26 170.103 76.7667 169.103 75.78C168.117 74.78 167.623 73.52 167.623 72C167.623 70.4933 168.11 69.24 169.083 68.24C170.057 67.24 171.317 66.74 172.863 66.74C174.33 66.74 175.523 67.26 176.443 68.3C177.377 69.3267 177.843 70.5667 177.843 72.02C177.843 72.2733 177.823 72.5333 177.783 72.8H169.403ZM172.863 68.38C171.93 68.38 171.157 68.6467 170.543 69.18C169.93 69.7 169.55 70.4 169.403 71.28H176.083C175.937 70.3333 175.563 69.6133 174.963 69.12C174.363 68.6267 173.663 68.38 172.863 68.38ZM181.583 68.68C182.157 67.44 183.197 66.82 184.703 66.82V68.64C183.85 68.6 183.117 68.8267 182.503 69.32C181.89 69.8133 181.583 70.6067 181.583 71.7V77H179.843V67H181.583V68.68ZM187.535 69.7C187.535 70.0867 187.728 70.4 188.115 70.64C188.502 70.8667 188.968 71.0533 189.515 71.2C190.062 71.3333 190.608 71.4933 191.155 71.68C191.702 71.8533 192.168 72.16 192.555 72.6C192.942 73.0267 193.135 73.58 193.135 74.26C193.135 75.1667 192.782 75.8933 192.075 76.44C191.382 76.9867 190.488 77.26 189.395 77.26C188.422 77.26 187.588 77.0467 186.895 76.62C186.202 76.1933 185.708 75.6267 185.415 74.92L186.915 74.06C187.075 74.54 187.375 74.92 187.815 75.2C188.255 75.48 188.782 75.62 189.395 75.62C189.968 75.62 190.442 75.5133 190.815 75.3C191.188 75.0733 191.375 74.7267 191.375 74.26C191.375 73.8733 191.182 73.5667 190.795 73.34C190.408 73.1 189.942 72.9133 189.395 72.78C188.848 72.6333 188.302 72.4667 187.755 72.28C187.208 72.0933 186.742 71.7867 186.355 71.36C185.968 70.9333 185.775 70.3867 185.775 69.72C185.775 68.8533 186.108 68.14 186.775 67.58C187.455 67.02 188.302 66.74 189.315 66.74C190.128 66.74 190.848 66.9267 191.475 67.3C192.115 67.66 192.595 68.1667 192.915 68.82L191.455 69.64C191.095 68.7867 190.382 68.36 189.315 68.36C188.822 68.36 188.402 68.48 188.055 68.72C187.708 68.9467 187.535 69.2733 187.535 69.7Z" fill="#141414"/>
<g clip-path="url(#clip0_1_246)">
<path d="M14.6667 115.387V116C14.6659 117.438 14.2003 118.836 13.3396 119.988C12.4788 121.139 11.2689 121.982 9.89025 122.389C8.51163 122.797 7.03818 122.748 5.68966 122.25C4.34113 121.752 3.18978 120.831 2.40732 119.625C1.62485 118.419 1.2532 116.992 1.34779 115.558C1.44239 114.123 1.99815 112.758 2.9322 111.665C3.86625 110.572 5.12853 109.81 6.5308 109.493C7.93307 109.177 9.40019 109.322 10.7133 109.907" stroke="#005AE2" stroke-width="2" stroke-linecap="round" stroke-linejoin="round"/>
<path d="M14.6667 110.667L8 117.34L6 115.34" stroke="#005AE2" stroke-width="2" stroke-linecap="round" stroke-linejoin="round"/>
</g>
<path d="M31.3965 119.244C30.7152 119.869 29.8332 120.182 28.7505 120.182C27.6679 120.182 26.7812 119.869 26.0905 119.244C25.4092 118.609 25.0685 117.765 25.0685 116.71V110.2H26.3705V116.654C26.3705 117.345 26.5759 117.895 26.9865 118.306C27.3972 118.707 27.9852 118.908 28.7505 118.908C29.5159 118.908 30.1039 118.707 30.5145 118.306C30.9252 117.895 31.1305 117.345 31.1305 116.654V110.2H32.4185V116.71C32.4185 117.765 32.0779 118.609 31.3965 119.244ZM37.7694 112.818C38.5907 112.818 39.2487 113.079 39.7434 113.602C40.238 114.115 40.4854 114.815 40.4854 115.702V120H39.2674V115.772C39.2674 115.203 39.1134 114.764 38.8054 114.456C38.4974 114.139 38.0727 113.98 37.5314 113.98C36.9247 113.98 36.4347 114.171 36.0614 114.554C35.688 114.927 35.5014 115.506 35.5014 116.29V120H34.2834V113H35.5014V114.008C35.996 113.215 36.752 112.818 37.7694 112.818ZM42.1857 120V109.78H43.4037V120H42.1857ZM45.8779 111.726C45.6446 111.726 45.4486 111.647 45.2899 111.488C45.1312 111.329 45.0519 111.138 45.0519 110.914C45.0519 110.69 45.1312 110.499 45.2899 110.34C45.4486 110.172 45.6446 110.088 45.8779 110.088C46.1019 110.088 46.2932 110.172 46.4519 110.34C46.6106 110.499 46.6899 110.69 46.6899 110.914C46.6899 111.138 46.6106 111.329 46.4519 111.488C46.2932 111.647 46.1019 111.726 45.8779 111.726ZM45.2619 120V113H46.4799V120H45.2619ZM55.8981 112.818C56.6821 112.818 57.3167 113.075 57.8021 113.588C58.2874 114.092 58.5301 114.778 58.5301 115.646V120H57.3121V115.688C57.3121 115.147 57.1721 114.727 56.8921 114.428C56.6121 114.129 56.2387 113.98 55.7721 113.98C55.2494 113.98 54.8294 114.157 54.5121 114.512C54.2041 114.857 54.0501 115.389 54.0501 116.108V120H52.8321V115.688C52.8321 115.147 52.6967 114.727 52.4261 114.428C52.1647 114.129 51.8054 113.98 51.3481 113.98C50.8347 113.98 50.4054 114.157 50.0601 114.512C49.7241 114.867 49.5561 115.399 49.5561 116.108V120H48.3381V113H49.5561V113.938C50.0321 113.191 50.7274 112.818 51.6421 112.818C52.5847 112.818 53.2707 113.215 53.7001 114.008C54.1854 113.215 54.9181 112.818 55.8981 112.818ZM60.8349 111.726C60.6016 111.726 60.4056 111.647 60.2469 111.488C60.0883 111.329 60.0089 111.138 60.0089 110.914C60.0089 110.69 60.0883 110.499 60.2469 110.34C60.4056 110.172 60.6016 110.088 60.8349 110.088C61.0589 110.088 61.2503 110.172 61.4089 110.34C61.5676 110.499 61.6469 110.69 61.6469 110.914C61.6469 111.138 61.5676 111.329 61.4089 111.488C61.2503 111.647 61.0589 111.726 60.8349 111.726ZM60.2189 120V113H61.4369V120H60.2189ZM67.1031 114.176H65.2411V117.97C65.2411 118.315 65.3064 118.563 65.4371 118.712C65.5771 118.852 65.7871 118.927 66.0671 118.936C66.3471 118.936 66.6924 118.927 67.1031 118.908V120C66.0391 120.14 65.2598 120.056 64.7651 119.748C64.2704 119.431 64.0231 118.838 64.0231 117.97V114.176H62.6371V113H64.0231V111.404L65.2411 111.04V113H67.1031V114.176ZM69.0436 117.06C69.165 117.685 69.4496 118.171 69.8976 118.516C70.355 118.861 70.915 119.034 71.5776 119.034C72.5016 119.034 73.1736 118.693 73.5936 118.012L74.6296 118.6C73.9483 119.655 72.9216 120.182 71.5496 120.182C70.439 120.182 69.5336 119.837 68.8336 119.146C68.143 118.446 67.7976 117.564 67.7976 116.5C67.7976 115.445 68.1383 114.568 68.8196 113.868C69.501 113.168 70.383 112.818 71.4656 112.818C72.4923 112.818 73.3276 113.182 73.9716 113.91C74.625 114.629 74.9516 115.497 74.9516 116.514C74.9516 116.691 74.9376 116.873 74.9096 117.06H69.0436ZM71.4656 113.966C70.8123 113.966 70.271 114.153 69.8416 114.526C69.4123 114.89 69.1463 115.38 69.0436 115.996H73.7196C73.617 115.333 73.3556 114.829 72.9356 114.484C72.5156 114.139 72.0256 113.966 71.4656 113.966ZM82.1341 110.2H83.3521V120H82.1341V118.796C81.5274 119.72 80.6454 120.182 79.4881 120.182C78.5081 120.182 77.6727 119.827 76.9821 119.118C76.2914 118.399 75.9461 117.527 75.9461 116.5C75.9461 115.473 76.2914 114.605 76.9821 113.896C77.6727 113.177 78.5081 112.818 79.4881 112.818C80.6454 112.818 81.5274 113.28 82.1341 114.204V110.2ZM79.6421 119.006C80.3514 119.006 80.9441 118.768 81.4201 118.292C81.8961 117.807 82.1341 117.209 82.1341 116.5C82.1341 115.791 81.8961 115.198 81.4201 114.722C80.9441 114.237 80.3514 113.994 79.6421 113.994C78.9421 113.994 78.3541 114.237 77.8781 114.722C77.4021 115.198 77.1641 115.791 77.1641 116.5C77.1641 117.209 77.4021 117.807 77.8781 118.292C78.3541 118.768 78.9421 119.006 79.6421 119.006ZM95.0254 119.244C94.3441 119.869 93.4621 120.182 92.3794 120.182C91.2968 120.182 90.4101 119.869 89.7194 119.244C89.0381 118.609 88.6974 117.765 88.6974 116.71V110.2H89.9994V116.654C89.9994 117.345 90.2048 117.895 90.6154 118.306C91.0261 118.707 91.6141 118.908 92.3794 118.908C93.1448 118.908 93.7328 118.707 94.1434 118.306C94.5541 117.895 94.7594 117.345 94.7594 116.654V110.2H96.0474V116.71C96.0474 117.765 95.7068 118.609 95.0254 119.244ZM103.848 120L101.65 116.248H99.3403V120H98.0383V110.2H101.958C102.798 110.2 103.517 110.499 104.114 111.096C104.712 111.684 105.01 112.398 105.01 113.238C105.01 113.873 104.819 114.451 104.436 114.974C104.063 115.497 103.578 115.865 102.98 116.08L105.29 120H103.848ZM99.3403 111.418V115.072H101.958C102.444 115.072 102.854 114.895 103.19 114.54C103.536 114.176 103.708 113.742 103.708 113.238C103.708 112.734 103.536 112.305 103.19 111.95C102.854 111.595 102.444 111.418 101.958 111.418H99.3403ZM107.899 118.768H112.127V120H106.597V110.2H107.899V118.768ZM120.097 120.182C119.182 120.182 118.398 119.967 117.745 119.538C117.101 119.109 116.648 118.521 116.387 117.774L117.507 117.13C117.889 118.315 118.762 118.908 120.125 118.908C120.797 118.908 121.31 118.773 121.665 118.502C122.019 118.222 122.197 117.853 122.197 117.396C122.197 116.929 122.019 116.579 121.665 116.346C121.31 116.113 120.717 115.865 119.887 115.604C119.476 115.473 119.163 115.371 118.949 115.296C118.734 115.212 118.463 115.091 118.137 114.932C117.819 114.764 117.581 114.596 117.423 114.428C117.264 114.251 117.119 114.022 116.989 113.742C116.867 113.462 116.807 113.145 116.807 112.79C116.807 111.941 117.105 111.269 117.703 110.774C118.3 110.27 119.028 110.018 119.887 110.018C120.661 110.018 121.333 110.214 121.903 110.606C122.481 110.998 122.915 111.516 123.205 112.16L122.113 112.79C121.693 111.782 120.951 111.278 119.887 111.278C119.355 111.278 118.925 111.409 118.599 111.67C118.272 111.931 118.109 112.286 118.109 112.734C118.109 113.163 118.263 113.49 118.571 113.714C118.879 113.938 119.411 114.171 120.167 114.414C120.437 114.498 120.629 114.559 120.741 114.596C120.853 114.633 121.025 114.699 121.259 114.792C121.501 114.885 121.679 114.96 121.791 115.016C121.903 115.072 122.052 115.151 122.239 115.254C122.435 115.357 122.579 115.455 122.673 115.548C122.766 115.641 122.873 115.758 122.995 115.898C123.125 116.029 123.219 116.164 123.275 116.304C123.331 116.444 123.377 116.607 123.415 116.794C123.461 116.971 123.485 117.163 123.485 117.368C123.485 118.227 123.172 118.913 122.547 119.426C121.921 119.93 121.105 120.182 120.097 120.182ZM128.387 112.818C129.208 112.818 129.866 113.079 130.361 113.602C130.855 114.115 131.103 114.815 131.103 115.702V120H129.885V115.772C129.885 115.203 129.731 114.764 129.423 114.456C129.115 114.139 128.69 113.98 128.149 113.98C127.542 113.98 127.052 114.171 126.679 114.554C126.305 114.927 126.119 115.506 126.119 116.29V120H124.901V110.2H126.119V114.008C126.613 113.215 127.369 112.818 128.387 112.818ZM138.711 119.118C137.992 119.827 137.12 120.182 136.093 120.182C135.066 120.182 134.194 119.827 133.475 119.118C132.766 118.409 132.411 117.536 132.411 116.5C132.411 115.464 132.766 114.591 133.475 113.882C134.194 113.173 135.066 112.818 136.093 112.818C137.12 112.818 137.992 113.173 138.711 113.882C139.43 114.591 139.789 115.464 139.789 116.5C139.789 117.536 139.43 118.409 138.711 119.118ZM136.093 118.992C136.793 118.992 137.381 118.754 137.857 118.278C138.333 117.802 138.571 117.209 138.571 116.5C138.571 115.791 138.333 115.198 137.857 114.722C137.381 114.246 136.793 114.008 136.093 114.008C135.402 114.008 134.819 114.246 134.343 114.722C133.867 115.198 133.629 115.791 133.629 116.5C133.629 117.209 133.867 117.802 134.343 118.278C134.819 118.754 135.402 118.992 136.093 118.992ZM142.443 114.176C142.844 113.308 143.572 112.874 144.627 112.874V114.148C144.029 114.12 143.516 114.279 143.087 114.624C142.657 114.969 142.443 115.525 142.443 116.29V120H141.225V113H142.443V114.176ZM149.791 114.176H147.929V117.97C147.929 118.315 147.994 118.563 148.125 118.712C148.265 118.852 148.475 118.927 148.755 118.936C149.035 118.936 149.38 118.927 149.791 118.908V120C148.727 120.14 147.947 120.056 147.453 119.748C146.958 119.431 146.711 118.838 146.711 117.97V114.176H145.325V113H146.711V111.404L147.929 111.04V113H149.791V114.176ZM151.731 117.06C151.852 117.685 152.137 118.171 152.585 118.516C153.042 118.861 153.602 119.034 154.265 119.034C155.189 119.034 155.861 118.693 156.281 118.012L157.317 118.6C156.636 119.655 155.609 120.182 154.237 120.182C153.126 120.182 152.221 119.837 151.521 119.146C150.83 118.446 150.485 117.564 150.485 116.5C150.485 115.445 150.826 114.568 151.507 113.868C152.188 113.168 153.07 112.818 154.153 112.818C155.18 112.818 156.015 113.182 156.659 113.91C157.312 114.629 157.639 115.497 157.639 116.514C157.639 116.691 157.625 116.873 157.597 117.06H151.731ZM154.153 113.966C153.5 113.966 152.958 114.153 152.529 114.526C152.1 114.89 151.834 115.38 151.731 115.996H156.407C156.304 115.333 156.043 114.829 155.623 114.484C155.203 114.139 154.713 113.966 154.153 113.966ZM162.525 112.818C163.347 112.818 164.005 113.079 164.499 113.602C164.994 114.115 165.241 114.815 165.241 115.702V120H164.023V115.772C164.023 115.203 163.869 114.764 163.561 114.456C163.253 114.139 162.829 113.98 162.287 113.98C161.681 113.98 161.191 114.171 160.817 114.554C160.444 114.927 160.257 115.506 160.257 116.29V120H159.039V113H160.257V114.008C160.752 113.215 161.508 112.818 162.525 112.818ZM167.558 111.726C167.324 111.726 167.128 111.647 166.97 111.488C166.811 111.329 166.732 111.138 166.732 110.914C166.732 110.69 166.811 110.499 166.97 110.34C167.128 110.172 167.324 110.088 167.558 110.088C167.782 110.088 167.973 110.172 168.132 110.34C168.29 110.499 168.37 110.69 168.37 110.914C168.37 111.138 168.29 111.329 168.132 111.488C167.973 111.647 167.782 111.726 167.558 111.726ZM166.942 120V113H168.16V120H166.942ZM173.504 112.818C174.325 112.818 174.983 113.079 175.478 113.602C175.972 114.115 176.22 114.815 176.22 115.702V120H175.002V115.772C175.002 115.203 174.848 114.764 174.54 114.456C174.232 114.139 173.807 113.98 173.266 113.98C172.659 113.98 172.169 114.171 171.796 114.554C171.422 114.927 171.236 115.506 171.236 116.29V120H170.018V113H171.236V114.008C171.73 113.215 172.486 112.818 173.504 112.818ZM183.73 113H184.934V119.706C184.934 120.742 184.584 121.545 183.884 122.114C183.184 122.693 182.344 122.982 181.364 122.982C180.58 122.982 179.903 122.833 179.334 122.534C178.765 122.245 178.335 121.825 178.046 121.274L179.11 120.672C179.493 121.456 180.253 121.848 181.392 121.848C182.12 121.848 182.689 121.657 183.1 121.274C183.52 120.891 183.73 120.369 183.73 119.706V118.712C183.114 119.645 182.237 120.112 181.098 120.112C180.099 120.112 179.255 119.757 178.564 119.048C177.873 118.339 177.528 117.475 177.528 116.458C177.528 115.441 177.873 114.582 178.564 113.882C179.255 113.173 180.099 112.818 181.098 112.818C182.246 112.818 183.123 113.28 183.73 114.204V113ZM179.46 118.236C179.936 118.712 180.529 118.95 181.238 118.95C181.947 118.95 182.54 118.712 183.016 118.236C183.492 117.76 183.73 117.167 183.73 116.458C183.73 115.758 183.492 115.17 183.016 114.694C182.54 114.218 181.947 113.98 181.238 113.98C180.529 113.98 179.936 114.218 179.46 114.694C178.984 115.17 178.746 115.758 178.746 116.458C178.746 117.167 178.984 117.76 179.46 118.236Z" fill="#141414"/>
<g clip-path="url(#clip1_1_246)">
<path d="M14.6667 163.387V164C14.6659 165.438 14.2003 166.836 13.3396 167.988C12.4788 169.139 11.2689 169.982 9.89025 170.389C8.51163 170.797 7.03818 170.748 5.68966 170.25C4.34113 169.752 3.18978 168.831 2.40732 167.625C1.62485 166.419 1.2532 164.992 1.34779 163.558C1.44239 162.123 1.99815 160.758 2.9322 159.665C3.86625 158.572 5.12853 157.81 6.5308 157.493C7.93307 157.177 9.40019 157.322 10.7133 157.907" stroke="#005AE2" stroke-width="2" stroke-linecap="round" stroke-linejoin="round"/>
<path d="M14.6667 158.667L8 165.34L6 163.34" stroke="#005AE2" stroke-width="2" stroke-linecap="round" stroke-linejoin="round"/>
</g>
<path d="M30.7447 162.918C31.1927 163.133 31.5474 163.441 31.8087 163.842C32.0794 164.243 32.2147 164.705 32.2147 165.228C32.2147 166.012 31.9394 166.67 31.3887 167.202C30.8381 167.734 30.1661 168 29.3727 168H25.1447V158.2H29.0647C29.8301 158.2 30.4787 158.457 31.0107 158.97C31.5427 159.483 31.8087 160.118 31.8087 160.874C31.8087 161.742 31.4541 162.423 30.7447 162.918ZM29.0647 159.418H26.4467V162.414H29.0647C29.4754 162.414 29.8207 162.269 30.1007 161.98C30.3807 161.691 30.5207 161.336 30.5207 160.916C30.5207 160.505 30.3761 160.155 30.0867 159.866C29.8067 159.567 29.4661 159.418 29.0647 159.418ZM29.3727 166.782C29.8114 166.782 30.1801 166.628 30.4787 166.32C30.7774 166.012 30.9267 165.634 30.9267 165.186C30.9267 164.747 30.7727 164.374 30.4647 164.066C30.1661 163.758 29.8021 163.604 29.3727 163.604H26.4467V166.782H29.3727ZM39.469 161H40.687V168H39.469V166.796C38.8624 167.72 37.9804 168.182 36.823 168.182C35.843 168.182 35.0077 167.827 34.317 167.118C33.6264 166.399 33.281 165.527 33.281 164.5C33.281 163.473 33.6264 162.605 34.317 161.896C35.0077 161.177 35.843 160.818 36.823 160.818C37.9804 160.818 38.8624 161.28 39.469 162.204V161ZM36.977 167.006C37.6864 167.006 38.279 166.768 38.755 166.292C39.231 165.807 39.469 165.209 39.469 164.5C39.469 163.791 39.231 163.198 38.755 162.722C38.279 162.237 37.6864 161.994 36.977 161.994C36.277 161.994 35.689 162.237 35.213 162.722C34.737 163.198 34.499 163.791 34.499 164.5C34.499 165.209 34.737 165.807 35.213 166.292C35.689 166.768 36.277 167.006 36.977 167.006ZM43.5687 162.89C43.5687 163.161 43.7041 163.38 43.9747 163.548C44.2454 163.707 44.5721 163.837 44.9547 163.94C45.3374 164.033 45.7201 164.145 46.1027 164.276C46.4854 164.397 46.8121 164.612 47.0827 164.92C47.3534 165.219 47.4887 165.606 47.4887 166.082C47.4887 166.717 47.2414 167.225 46.7467 167.608C46.2614 167.991 45.6361 168.182 44.8707 168.182C44.1894 168.182 43.6061 168.033 43.1207 167.734C42.6354 167.435 42.2901 167.039 42.0847 166.544L43.1347 165.942C43.2467 166.278 43.4567 166.544 43.7647 166.74C44.0727 166.936 44.4414 167.034 44.8707 167.034C45.2721 167.034 45.6034 166.959 45.8647 166.81C46.1261 166.651 46.2567 166.409 46.2567 166.082C46.2567 165.811 46.1214 165.597 45.8507 165.438C45.5801 165.27 45.2534 165.139 44.8707 165.046C44.4881 164.943 44.1054 164.827 43.7227 164.696C43.3401 164.565 43.0134 164.351 42.7427 164.052C42.4721 163.753 42.3367 163.371 42.3367 162.904C42.3367 162.297 42.5701 161.798 43.0367 161.406C43.5127 161.014 44.1054 160.818 44.8147 160.818C45.3841 160.818 45.8881 160.949 46.3267 161.21C46.7747 161.462 47.1107 161.817 47.3347 162.274L46.3127 162.848C46.0607 162.251 45.5614 161.952 44.8147 161.952C44.4694 161.952 44.1754 162.036 43.9327 162.204C43.6901 162.363 43.5687 162.591 43.5687 162.89ZM49.4785 159.726C49.2451 159.726 49.0491 159.647 48.8905 159.488C48.7318 159.329 48.6525 159.138 48.6525 158.914C48.6525 158.69 48.7318 158.499 48.8905 158.34C49.0491 158.172 49.2451 158.088 49.4785 158.088C49.7025 158.088 49.8938 158.172 50.0525 158.34C50.2111 158.499 50.2905 158.69 50.2905 158.914C50.2905 159.138 50.2111 159.329 50.0525 159.488C49.8938 159.647 49.7025 159.726 49.4785 159.726ZM48.8625 168V161H50.0805V168H48.8625ZM55.2286 168.182C54.174 168.182 53.2966 167.832 52.5966 167.132C51.8966 166.423 51.5466 165.545 51.5466 164.5C51.5466 163.455 51.8966 162.582 52.5966 161.882C53.2966 161.173 54.174 160.818 55.2286 160.818C55.9193 160.818 56.54 160.986 57.0906 161.322C57.6413 161.649 58.052 162.092 58.3226 162.652L57.3006 163.24C57.1233 162.867 56.848 162.568 56.4746 162.344C56.1106 162.12 55.6953 162.008 55.2286 162.008C54.5286 162.008 53.9406 162.246 53.4646 162.722C52.998 163.198 52.7646 163.791 52.7646 164.5C52.7646 165.2 52.998 165.788 53.4646 166.264C53.9406 166.74 54.5286 166.978 55.2286 166.978C55.6953 166.978 56.1153 166.871 56.4886 166.656C56.862 166.432 57.1466 166.133 57.3426 165.76L58.3786 166.362C58.08 166.913 57.6506 167.356 57.0906 167.692C56.5306 168.019 55.91 168.182 55.2286 168.182ZM64.5229 166.768H68.7509V168H63.2209V158.2H64.5229V166.768ZM70.5468 159.726C70.3135 159.726 70.1175 159.647 69.9588 159.488C69.8002 159.329 69.7208 159.138 69.7208 158.914C69.7208 158.69 69.8002 158.499 69.9588 158.34C70.1175 158.172 70.3135 158.088 70.5468 158.088C70.7708 158.088 70.9622 158.172 71.1208 158.34C71.2795 158.499 71.3588 158.69 71.3588 158.914C71.3588 159.138 71.2795 159.329 71.1208 159.488C70.9622 159.647 70.7708 159.726 70.5468 159.726ZM69.9308 168V161H71.1488V168H69.9308ZM76.493 160.818C77.3143 160.818 77.9723 161.079 78.467 161.602C78.9617 162.115 79.209 162.815 79.209 163.702V168H77.991V163.772C77.991 163.203 77.837 162.764 77.529 162.456C77.221 162.139 76.7963 161.98 76.255 161.98C75.6483 161.98 75.1583 162.171 74.785 162.554C74.4117 162.927 74.225 163.506 74.225 164.29V168H73.007V161H74.225V162.008C74.7197 161.215 75.4757 160.818 76.493 160.818ZM86.8314 168H85.3194L82.1274 164.682V168H80.9094V158.2H82.1274V164.094L85.1514 161H86.7194L83.3734 164.388L86.8314 168ZM98.044 168L97.246 165.802H92.836L92.038 168H90.652L94.306 158.2H95.776L99.43 168H98.044ZM93.284 164.584H96.798L95.034 159.754L93.284 164.584ZM103.946 160.818C104.767 160.818 105.425 161.079 105.92 161.602C106.415 162.115 106.662 162.815 106.662 163.702V168H105.444V163.772C105.444 163.203 105.29 162.764 104.982 162.456C104.674 162.139 104.249 161.98 103.708 161.98C103.101 161.98 102.611 162.171 102.238 162.554C101.865 162.927 101.678 163.506 101.678 164.29V168H100.46V161H101.678V162.008C102.173 161.215 102.929 160.818 103.946 160.818ZM114.158 161H115.376V168H114.158V166.796C113.552 167.72 112.67 168.182 111.512 168.182C110.532 168.182 109.697 167.827 109.006 167.118C108.316 166.399 107.97 165.527 107.97 164.5C107.97 163.473 108.316 162.605 109.006 161.896C109.697 161.177 110.532 160.818 111.512 160.818C112.67 160.818 113.552 161.28 114.158 162.204V161ZM111.666 167.006C112.376 167.006 112.968 166.768 113.444 166.292C113.92 165.807 114.158 165.209 114.158 164.5C114.158 163.791 113.92 163.198 113.444 162.722C112.968 162.237 112.376 161.994 111.666 161.994C110.966 161.994 110.378 162.237 109.902 162.722C109.426 163.198 109.188 163.791 109.188 164.5C109.188 165.209 109.426 165.807 109.902 166.292C110.378 166.768 110.966 167.006 111.666 167.006ZM117.222 168V157.78H118.44V168H117.222ZM125.184 161H126.486L123.63 168.434C123.331 169.227 122.911 169.829 122.37 170.24C121.838 170.66 121.222 170.847 120.522 170.8V169.666C121.381 169.731 122.011 169.255 122.412 168.238L122.538 167.972L119.486 161H120.788L123.168 166.488L125.184 161ZM131.311 162.176H129.449V165.97C129.449 166.315 129.514 166.563 129.645 166.712C129.785 166.852 129.995 166.927 130.275 166.936C130.555 166.936 130.9 166.927 131.311 166.908V168C130.247 168.14 129.468 168.056 128.973 167.748C128.478 167.431 128.231 166.838 128.231 165.97V162.176H126.845V161H128.231V159.404L129.449 159.04V161H131.311V162.176ZM133.369 159.726C133.136 159.726 132.94 159.647 132.781 159.488C132.622 159.329 132.543 159.138 132.543 158.914C132.543 158.69 132.622 158.499 132.781 158.34C132.94 158.172 133.136 158.088 133.369 158.088C133.593 158.088 133.784 158.172 133.943 158.34C134.102 158.499 134.181 158.69 134.181 158.914C134.181 159.138 134.102 159.329 133.943 159.488C133.784 159.647 133.593 159.726 133.369 159.726ZM132.753 168V161H133.971V168H132.753ZM139.119 168.182C138.065 168.182 137.187 167.832 136.487 167.132C135.787 166.423 135.437 165.545 135.437 164.5C135.437 163.455 135.787 162.582 136.487 161.882C137.187 161.173 138.065 160.818 139.119 160.818C139.81 160.818 140.431 160.986 140.981 161.322C141.532 161.649 141.943 162.092 142.213 162.652L141.191 163.24C141.014 162.867 140.739 162.568 140.365 162.344C140.001 162.12 139.586 162.008 139.119 162.008C138.419 162.008 137.831 162.246 137.355 162.722C136.889 163.198 136.655 163.791 136.655 164.5C136.655 165.2 136.889 165.788 137.355 166.264C137.831 166.74 138.419 166.978 139.119 166.978C139.586 166.978 140.006 166.871 140.379 166.656C140.753 166.432 141.037 166.133 141.233 165.76L142.269 166.362C141.971 166.913 141.541 167.356 140.981 167.692C140.421 168.019 139.801 168.182 139.119 168.182ZM144.467 162.89C144.467 163.161 144.602 163.38 144.873 163.548C145.144 163.707 145.47 163.837 145.853 163.94C146.236 164.033 146.618 164.145 147.001 164.276C147.384 164.397 147.71 164.612 147.981 164.92C148.252 165.219 148.387 165.606 148.387 166.082C148.387 166.717 148.14 167.225 147.645 167.608C147.16 167.991 146.534 168.182 145.769 168.182C145.088 168.182 144.504 168.033 144.019 167.734C143.534 167.435 143.188 167.039 142.983 166.544L144.033 165.942C144.145 166.278 144.355 166.544 144.663 166.74C144.971 166.936 145.34 167.034 145.769 167.034C146.17 167.034 146.502 166.959 146.763 166.81C147.024 166.651 147.155 166.409 147.155 166.082C147.155 165.811 147.02 165.597 146.749 165.438C146.478 165.27 146.152 165.139 145.769 165.046C145.386 164.943 145.004 164.827 144.621 164.696C144.238 164.565 143.912 164.351 143.641 164.052C143.37 163.753 143.235 163.371 143.235 162.904C143.235 162.297 143.468 161.798 143.935 161.406C144.411 161.014 145.004 160.818 145.713 160.818C146.282 160.818 146.786 160.949 147.225 161.21C147.673 161.462 148.009 161.817 148.233 162.274L147.211 162.848C146.959 162.251 146.46 161.952 145.713 161.952C145.368 161.952 145.074 162.036 144.831 162.204C144.588 162.363 144.467 162.591 144.467 162.89Z" fill="#141414"/>
<g clip-path="url(#clip2_1_246)">
<path d="M14.6667 211.387V212C14.6659 213.438 14.2003 214.836 13.3396 215.988C12.4788 217.139 11.2689 217.982 9.89025 218.389C8.51163 218.797 7.03818 218.748 5.68966 218.25C4.34113 217.752 3.18978 216.831 2.40732 215.625C1.62485 214.419 1.2532 212.992 1.34779 211.558C1.44239 210.123 1.99815 208.758 2.9322 207.665C3.86625 206.572 5.12853 205.81 6.5308 205.493C7.93307 205.177 9.40019 205.322 10.7133 205.907" stroke="#005AE2" stroke-width="2" stroke-linecap="round" stroke-linejoin="round"/>
<path d="M14.6667 206.667L8 213.34L6 211.34" stroke="#005AE2" stroke-width="2" stroke-linecap="round" stroke-linejoin="round"/>
</g>
<path d="M29.6687 216.182C28.1847 216.182 26.9574 215.692 25.9867 214.712C25.0254 213.732 24.5447 212.528 24.5447 211.1C24.5447 209.672 25.0254 208.468 25.9867 207.488C26.9574 206.508 28.1847 206.018 29.6687 206.018C30.5647 206.018 31.386 206.233 32.1327 206.662C32.8887 207.091 33.4767 207.67 33.8967 208.398L32.7627 209.056C32.4827 208.515 32.0627 208.085 31.5027 207.768C30.952 207.441 30.3407 207.278 29.6687 207.278C28.5394 207.278 27.6154 207.642 26.8967 208.37C26.1874 209.098 25.8327 210.008 25.8327 211.1C25.8327 212.183 26.1874 213.088 26.8967 213.816C27.6154 214.544 28.5394 214.908 29.6687 214.908C30.3407 214.908 30.952 214.749 31.5027 214.432C32.0627 214.105 32.4827 213.676 32.7627 213.144L33.8967 213.788C33.486 214.516 32.9027 215.099 32.1467 215.538C31.3907 215.967 30.5647 216.182 29.6687 216.182ZM40.1163 209H41.3343V216H40.1163V214.992C39.6216 215.785 38.8656 216.182 37.8483 216.182C37.027 216.182 36.369 215.925 35.8743 215.412C35.3796 214.889 35.1323 214.185 35.1323 213.298V209H36.3503V213.228C36.3503 213.797 36.5043 214.241 36.8123 214.558C37.1203 214.866 37.545 215.02 38.0863 215.02C38.693 215.02 39.183 214.833 39.5563 214.46C39.9296 214.077 40.1163 213.494 40.1163 212.71V209ZM44.225 210.89C44.225 211.161 44.3603 211.38 44.631 211.548C44.9016 211.707 45.2283 211.837 45.611 211.94C45.9936 212.033 46.3763 212.145 46.759 212.276C47.1416 212.397 47.4683 212.612 47.739 212.92C48.0096 213.219 48.145 213.606 48.145 214.082C48.145 214.717 47.8976 215.225 47.403 215.608C46.9176 215.991 46.2923 216.182 45.527 216.182C44.8456 216.182 44.2623 216.033 43.777 215.734C43.2916 215.435 42.9463 215.039 42.741 214.544L43.791 213.942C43.903 214.278 44.113 214.544 44.421 214.74C44.729 214.936 45.0976 215.034 45.527 215.034C45.9283 215.034 46.2596 214.959 46.521 214.81C46.7823 214.651 46.913 214.409 46.913 214.082C46.913 213.811 46.7776 213.597 46.507 213.438C46.2363 213.27 45.9096 213.139 45.527 213.046C45.1443 212.943 44.7616 212.827 44.379 212.696C43.9963 212.565 43.6696 212.351 43.399 212.052C43.1283 211.753 42.993 211.371 42.993 210.904C42.993 210.297 43.2263 209.798 43.693 209.406C44.169 209.014 44.7616 208.818 45.471 208.818C46.0403 208.818 46.5443 208.949 46.983 209.21C47.431 209.462 47.767 209.817 47.991 210.274L46.969 210.848C46.717 210.251 46.2176 209.952 45.471 209.952C45.1256 209.952 44.8316 210.036 44.589 210.204C44.3463 210.363 44.225 210.591 44.225 210.89ZM53.1216 210.176H51.2596V213.97C51.2596 214.315 51.325 214.563 51.4556 214.712C51.5956 214.852 51.8056 214.927 52.0856 214.936C52.3656 214.936 52.711 214.927 53.1216 214.908V216C52.0576 216.14 51.2783 216.056 50.7836 215.748C50.289 215.431 50.0416 214.838 50.0416 213.97V210.176H48.6556V209H50.0416V207.404L51.2596 207.04V209H53.1216V210.176ZM60.1162 215.118C59.3975 215.827 58.5248 216.182 57.4982 216.182C56.4715 216.182 55.5988 215.827 54.8802 215.118C54.1708 214.409 53.8162 213.536 53.8162 212.5C53.8162 211.464 54.1708 210.591 54.8802 209.882C55.5988 209.173 56.4715 208.818 57.4982 208.818C58.5248 208.818 59.3975 209.173 60.1162 209.882C60.8348 210.591 61.1942 211.464 61.1942 212.5C61.1942 213.536 60.8348 214.409 60.1162 215.118ZM57.4982 214.992C58.1982 214.992 58.7862 214.754 59.2622 214.278C59.7382 213.802 59.9762 213.209 59.9762 212.5C59.9762 211.791 59.7382 211.198 59.2622 210.722C58.7862 210.246 58.1982 210.008 57.4982 210.008C56.8075 210.008 56.2242 210.246 55.7482 210.722C55.2722 211.198 55.0342 211.791 55.0342 212.5C55.0342 213.209 55.2722 213.802 55.7482 214.278C56.2242 214.754 56.8075 214.992 57.4982 214.992ZM70.1901 208.818C70.9741 208.818 71.6087 209.075 72.0941 209.588C72.5794 210.092 72.8221 210.778 72.8221 211.646V216H71.6041V211.688C71.6041 211.147 71.4641 210.727 71.1841 210.428C70.9041 210.129 70.5307 209.98 70.0641 209.98C69.5414 209.98 69.1214 210.157 68.8041 210.512C68.4961 210.857 68.3421 211.389 68.3421 212.108V216H67.1241V211.688C67.1241 211.147 66.9887 210.727 66.7181 210.428C66.4567 210.129 66.0974 209.98 65.6401 209.98C65.1267 209.98 64.6974 210.157 64.3521 210.512C64.0161 210.867 63.8481 211.399 63.8481 212.108V216H62.6301V209H63.8481V209.938C64.3241 209.191 65.0194 208.818 65.9341 208.818C66.8767 208.818 67.5627 209.215 67.9921 210.008C68.4774 209.215 69.2101 208.818 70.1901 208.818ZM75.1269 207.726C74.8936 207.726 74.6976 207.647 74.5389 207.488C74.3802 207.329 74.3009 207.138 74.3009 206.914C74.3009 206.69 74.3802 206.499 74.5389 206.34C74.6976 206.172 74.8936 206.088 75.1269 206.088C75.3509 206.088 75.5422 206.172 75.7009 206.34C75.8596 206.499 75.9389 206.69 75.9389 206.914C75.9389 207.138 75.8596 207.329 75.7009 207.488C75.5422 207.647 75.3509 207.726 75.1269 207.726ZM74.5109 216V209H75.7289V216H74.5109ZM79.0011 214.838H82.7251V216H77.3351V215.188L80.9051 210.162H77.4751V209H82.5851V209.812L79.0011 214.838ZM89.5354 209H90.7534V216H89.5354V214.796C88.9288 215.72 88.0468 216.182 86.8894 216.182C85.9094 216.182 85.0741 215.827 84.3834 215.118C83.6928 214.399 83.3474 213.527 83.3474 212.5C83.3474 211.473 83.6928 210.605 84.3834 209.896C85.0741 209.177 85.9094 208.818 86.8894 208.818C88.0468 208.818 88.9288 209.28 89.5354 210.204V209ZM87.0434 215.006C87.7528 215.006 88.3454 214.768 88.8214 214.292C89.2974 213.807 89.5354 213.209 89.5354 212.5C89.5354 211.791 89.2974 211.198 88.8214 210.722C88.3454 210.237 87.7528 209.994 87.0434 209.994C86.3434 209.994 85.7554 210.237 85.2794 210.722C84.8034 211.198 84.5654 211.791 84.5654 212.5C84.5654 213.209 84.8034 213.807 85.2794 214.292C85.7554 214.768 86.3434 215.006 87.0434 215.006ZM96.4628 208.818C97.4428 208.818 98.2781 209.177 98.9688 209.896C99.6595 210.605 100.005 211.473 100.005 212.5C100.005 213.527 99.6595 214.399 98.9688 215.118C98.2781 215.827 97.4428 216.182 96.4628 216.182C95.3055 216.182 94.4235 215.72 93.8168 214.796V216H92.5988V206.2H93.8168V210.204C94.4235 209.28 95.3055 208.818 96.4628 208.818ZM96.3088 215.006C97.0088 215.006 97.5968 214.768 98.0728 214.292C98.5488 213.807 98.7868 213.209 98.7868 212.5C98.7868 211.791 98.5488 211.198 98.0728 210.722C97.5968 210.237 97.0088 209.994 96.3088 209.994C95.5995 209.994 95.0068 210.237 94.5308 210.722C94.0548 211.198 93.8168 211.791 93.8168 212.5C93.8168 213.209 94.0548 213.807 94.5308 214.292C95.0068 214.768 95.5995 215.006 96.3088 215.006ZM101.458 216V205.78H102.676V216H101.458ZM105.388 213.06C105.51 213.685 105.794 214.171 106.242 214.516C106.7 214.861 107.26 215.034 107.922 215.034C108.846 215.034 109.518 214.693 109.938 214.012L110.974 214.6C110.293 215.655 109.266 216.182 107.894 216.182C106.784 216.182 105.878 215.837 105.178 215.146C104.488 214.446 104.142 213.564 104.142 212.5C104.142 211.445 104.483 210.568 105.164 209.868C105.846 209.168 106.728 208.818 107.81 208.818C108.837 208.818 109.672 209.182 110.316 209.91C110.97 210.629 111.296 211.497 111.296 212.514C111.296 212.691 111.282 212.873 111.254 213.06H105.388ZM107.81 209.966C107.157 209.966 106.616 210.153 106.186 210.526C105.757 210.89 105.491 211.38 105.388 211.996H110.064C109.962 211.333 109.7 210.829 109.28 210.484C108.86 210.139 108.37 209.966 107.81 209.966ZM119.486 216.182C118.572 216.182 117.788 215.967 117.134 215.538C116.49 215.109 116.038 214.521 115.776 213.774L116.896 213.13C117.279 214.315 118.152 214.908 119.514 214.908C120.186 214.908 120.7 214.773 121.054 214.502C121.409 214.222 121.586 213.853 121.586 213.396C121.586 212.929 121.409 212.579 121.054 212.346C120.7 212.113 120.107 211.865 119.276 211.604C118.866 211.473 118.553 211.371 118.338 211.296C118.124 211.212 117.853 211.091 117.526 210.932C117.209 210.764 116.971 210.596 116.812 210.428C116.654 210.251 116.509 210.022 116.378 209.742C116.257 209.462 116.196 209.145 116.196 208.79C116.196 207.941 116.495 207.269 117.092 206.774C117.69 206.27 118.418 206.018 119.276 206.018C120.051 206.018 120.723 206.214 121.292 206.606C121.871 206.998 122.305 207.516 122.594 208.16L121.502 208.79C121.082 207.782 120.34 207.278 119.276 207.278C118.744 207.278 118.315 207.409 117.988 207.67C117.662 207.931 117.498 208.286 117.498 208.734C117.498 209.163 117.652 209.49 117.96 209.714C118.268 209.938 118.8 210.171 119.556 210.414C119.827 210.498 120.018 210.559 120.13 210.596C120.242 210.633 120.415 210.699 120.648 210.792C120.891 210.885 121.068 210.96 121.18 211.016C121.292 211.072 121.442 211.151 121.628 211.254C121.824 211.357 121.969 211.455 122.062 211.548C122.156 211.641 122.263 211.758 122.384 211.898C122.515 212.029 122.608 212.164 122.664 212.304C122.72 212.444 122.767 212.607 122.804 212.794C122.851 212.971 122.874 213.163 122.874 213.368C122.874 214.227 122.562 214.913 121.936 215.426C121.311 215.93 120.494 216.182 119.486 216.182ZM127.776 208.818C128.598 208.818 129.256 209.079 129.75 209.602C130.245 210.115 130.492 210.815 130.492 211.702V216H129.274V211.772C129.274 211.203 129.12 210.764 128.812 210.456C128.504 210.139 128.08 209.98 127.538 209.98C126.932 209.98 126.442 210.171 126.068 210.554C125.695 210.927 125.508 211.506 125.508 212.29V216H124.29V206.2H125.508V210.008C126.003 209.215 126.759 208.818 127.776 208.818ZM138.101 215.118C137.382 215.827 136.509 216.182 135.483 216.182C134.456 216.182 133.583 215.827 132.865 215.118C132.155 214.409 131.801 213.536 131.801 212.5C131.801 211.464 132.155 210.591 132.865 209.882C133.583 209.173 134.456 208.818 135.483 208.818C136.509 208.818 137.382 209.173 138.101 209.882C138.819 210.591 139.179 211.464 139.179 212.5C139.179 213.536 138.819 214.409 138.101 215.118ZM135.483 214.992C136.183 214.992 136.771 214.754 137.247 214.278C137.723 213.802 137.961 213.209 137.961 212.5C137.961 211.791 137.723 211.198 137.247 210.722C136.771 210.246 136.183 210.008 135.483 210.008C134.792 210.008 134.209 210.246 133.733 210.722C133.257 211.198 133.019 211.791 133.019 212.5C133.019 213.209 133.257 213.802 133.733 214.278C134.209 214.754 134.792 214.992 135.483 214.992ZM141.832 210.176C142.234 209.308 142.962 208.874 144.016 208.874V210.148C143.419 210.12 142.906 210.279 142.476 210.624C142.047 210.969 141.832 211.525 141.832 212.29V216H140.614V209H141.832V210.176ZM149.18 210.176H147.318V213.97C147.318 214.315 147.384 214.563 147.514 214.712C147.654 214.852 147.864 214.927 148.144 214.936C148.424 214.936 148.77 214.927 149.18 214.908V216C148.116 216.14 147.337 216.056 146.842 215.748C146.348 215.431 146.1 214.838 146.1 213.97V210.176H144.714V209H146.1V207.404L147.318 207.04V209H149.18V210.176ZM155.591 214.768H159.819V216H154.289V206.2H155.591V214.768ZM161.615 207.726C161.382 207.726 161.186 207.647 161.027 207.488C160.869 207.329 160.789 207.138 160.789 206.914C160.789 206.69 160.869 206.499 161.027 206.34C161.186 206.172 161.382 206.088 161.615 206.088C161.839 206.088 162.031 206.172 162.189 206.34C162.348 206.499 162.427 206.69 162.427 206.914C162.427 207.138 162.348 207.329 162.189 207.488C162.031 207.647 161.839 207.726 161.615 207.726ZM160.999 216V209H162.217V216H160.999ZM167.561 208.818C168.383 208.818 169.041 209.079 169.535 209.602C170.03 210.115 170.277 210.815 170.277 211.702V216H169.059V211.772C169.059 211.203 168.905 210.764 168.597 210.456C168.289 210.139 167.865 209.98 167.323 209.98C166.717 209.98 166.227 210.171 165.853 210.554C165.48 210.927 165.293 211.506 165.293 212.29V216H164.075V209H165.293V210.008C165.788 209.215 166.544 208.818 167.561 208.818ZM177.9 216H176.388L173.196 212.682V216H171.978V206.2H173.196V212.094L176.22 209H177.788L174.442 212.388L177.9 216ZM179.549 210.89C179.549 211.161 179.685 211.38 179.955 211.548C180.226 211.707 180.553 211.837 180.935 211.94C181.318 212.033 181.701 212.145 182.083 212.276C182.466 212.397 182.793 212.612 183.063 212.92C183.334 213.219 183.469 213.606 183.469 214.082C183.469 214.717 183.222 215.225 182.727 215.608C182.242 215.991 181.617 216.182 180.851 216.182C180.17 216.182 179.587 216.033 179.101 215.734C178.616 215.435 178.271 215.039 178.065 214.544L179.115 213.942C179.227 214.278 179.437 214.544 179.745 214.74C180.053 214.936 180.422 215.034 180.851 215.034C181.253 215.034 181.584 214.959 181.845 214.81C182.107 214.651 182.237 214.409 182.237 214.082C182.237 213.811 182.102 213.597 181.831 213.438C181.561 213.27 181.234 213.139 180.851 213.046C180.469 212.943 180.086 212.827 179.703 212.696C179.321 212.565 178.994 212.351 178.723 212.052C178.453 211.753 178.317 211.371 178.317 210.904C178.317 210.297 178.551 209.798 179.017 209.406C179.493 209.014 180.086 208.818 180.795 208.818C181.365 208.818 181.869 208.949 182.307 209.21C182.755 209.462 183.091 209.817 183.315 210.274L182.293 210.848C182.041 210.251 181.542 209.952 180.795 209.952C180.45 209.952 180.156 210.036 179.913 210.204C179.671 210.363 179.549 210.591 179.549 210.89Z" fill="black"/>
<g clip-path="url(#clip3_1_246)">
<path d="M14.6667 259.387V260C14.6659 261.438 14.2003 262.836 13.3396 263.988C12.4788 265.139 11.2689 265.982 9.89025 266.389C8.51163 266.797 7.03818 266.748 5.68966 266.25C4.34113 265.752 3.18978 264.831 2.40732 263.625C1.62485 262.419 1.2532 260.992 1.34779 259.558C1.44239 258.123 1.99815 256.758 2.9322 255.665C3.86625 254.572 5.12853 253.81 6.5308 253.493C7.93307 253.177 9.40019 253.322 10.7133 253.907" stroke="#005AE2" stroke-width="2" stroke-linecap="round" stroke-linejoin="round"/>
<path d="M14.6667 254.667L8 261.34L6 259.34" stroke="#005AE2" stroke-width="2" stroke-linecap="round" stroke-linejoin="round"/>
</g>
<path d="M28.7042 264.182C27.7896 264.182 27.0056 263.967 26.3522 263.538C25.7082 263.109 25.2556 262.521 24.9942 261.774L26.1142 261.13C26.4969 262.315 27.3696 262.908 28.7322 262.908C29.4042 262.908 29.9176 262.773 30.2722 262.502C30.6269 262.222 30.8042 261.853 30.8042 261.396C30.8042 260.929 30.6269 260.579 30.2722 260.346C29.9176 260.113 29.3249 259.865 28.4942 259.604C28.0836 259.473 27.7709 259.371 27.5562 259.296C27.3416 259.212 27.0709 259.091 26.7442 258.932C26.4269 258.764 26.1889 258.596 26.0302 258.428C25.8716 258.251 25.7269 258.022 25.5962 257.742C25.4749 257.462 25.4142 257.145 25.4142 256.79C25.4142 255.941 25.7129 255.269 26.3102 254.774C26.9076 254.27 27.6356 254.018 28.4942 254.018C29.2689 254.018 29.9409 254.214 30.5102 254.606C31.0889 254.998 31.5229 255.516 31.8122 256.16L30.7202 256.79C30.3002 255.782 29.5582 255.278 28.4942 255.278C27.9622 255.278 27.5329 255.409 27.2062 255.67C26.8796 255.931 26.7162 256.286 26.7162 256.734C26.7162 257.163 26.8702 257.49 27.1782 257.714C27.4862 257.938 28.0182 258.171 28.7742 258.414C29.0449 258.498 29.2362 258.559 29.3482 258.596C29.4602 258.633 29.6329 258.699 29.8662 258.792C30.1089 258.885 30.2862 258.96 30.3982 259.016C30.5102 259.072 30.6596 259.151 30.8462 259.254C31.0422 259.357 31.1869 259.455 31.2802 259.548C31.3736 259.641 31.4809 259.758 31.6022 259.898C31.7329 260.029 31.8262 260.164 31.8822 260.304C31.9382 260.444 31.9849 260.607 32.0222 260.794C32.0689 260.971 32.0922 261.163 32.0922 261.368C32.0922 262.227 31.7796 262.913 31.1542 263.426C30.5289 263.93 29.7122 264.182 28.7042 264.182ZM37.1109 258.176H35.2489V261.97C35.2489 262.315 35.3142 262.563 35.4449 262.712C35.5849 262.852 35.7949 262.927 36.0749 262.936C36.3549 262.936 36.7002 262.927 37.1109 262.908V264C36.0469 264.14 35.2676 264.056 34.7729 263.748C34.2782 263.431 34.0309 262.838 34.0309 261.97V258.176H32.6449V257H34.0309V255.404L35.2489 255.04V257H37.1109V258.176ZM43.9934 257H45.2114V264H43.9934V262.796C43.3868 263.72 42.5048 264.182 41.3474 264.182C40.3674 264.182 39.5321 263.827 38.8414 263.118C38.1508 262.399 37.8054 261.527 37.8054 260.5C37.8054 259.473 38.1508 258.605 38.8414 257.896C39.5321 257.177 40.3674 256.818 41.3474 256.818C42.5048 256.818 43.3868 257.28 43.9934 258.204V257ZM41.5014 263.006C42.2108 263.006 42.8034 262.768 43.2794 262.292C43.7554 261.807 43.9934 261.209 43.9934 260.5C43.9934 259.791 43.7554 259.198 43.2794 258.722C42.8034 258.237 42.2108 257.994 41.5014 257.994C40.8014 257.994 40.2134 258.237 39.7374 258.722C39.2614 259.198 39.0234 259.791 39.0234 260.5C39.0234 261.209 39.2614 261.807 39.7374 262.292C40.2134 262.768 40.8014 263.006 41.5014 263.006ZM50.5428 256.818C51.3641 256.818 52.0221 257.079 52.5168 257.602C53.0115 258.115 53.2588 258.815 53.2588 259.702V264H52.0408V259.772C52.0408 259.203 51.8868 258.764 51.5788 258.456C51.2708 258.139 50.8461 257.98 50.3048 257.98C49.6981 257.98 49.2081 258.171 48.8348 258.554C48.4615 258.927 48.2748 259.506 48.2748 260.29V264H47.0568V257H48.2748V258.008C48.7695 257.215 49.5255 256.818 50.5428 256.818ZM60.7552 254.2H61.9732V264H60.7552V262.796C60.1485 263.72 59.2665 264.182 58.1092 264.182C57.1292 264.182 56.2938 263.827 55.6032 263.118C54.9125 262.399 54.5672 261.527 54.5672 260.5C54.5672 259.473 54.9125 258.605 55.6032 257.896C56.2938 257.177 57.1292 256.818 58.1092 256.818C59.2665 256.818 60.1485 257.28 60.7552 258.204V254.2ZM58.2632 263.006C58.9725 263.006 59.5652 262.768 60.0412 262.292C60.5172 261.807 60.7552 261.209 60.7552 260.5C60.7552 259.791 60.5172 259.198 60.0412 258.722C59.5652 258.237 58.9725 257.994 58.2632 257.994C57.5632 257.994 56.9752 258.237 56.4992 258.722C56.0232 259.198 55.7852 259.791 55.7852 260.5C55.7852 261.209 56.0232 261.807 56.4992 262.292C56.9752 262.768 57.5632 263.006 58.2632 263.006ZM69.6145 257H70.8325V264H69.6145V262.796C69.0079 263.72 68.1259 264.182 66.9685 264.182C65.9885 264.182 65.1532 263.827 64.4625 263.118C63.7719 262.399 63.4265 261.527 63.4265 260.5C63.4265 259.473 63.7719 258.605 64.4625 257.896C65.1532 257.177 65.9885 256.818 66.9685 256.818C68.1259 256.818 69.0079 257.28 69.6145 258.204V257ZM67.1225 263.006C67.8319 263.006 68.4245 262.768 68.9005 262.292C69.3765 261.807 69.6145 261.209 69.6145 260.5C69.6145 259.791 69.3765 259.198 68.9005 258.722C68.4245 258.237 67.8319 257.994 67.1225 257.994C66.4225 257.994 65.8345 258.237 65.3585 258.722C64.8825 259.198 64.6445 259.791 64.6445 260.5C64.6445 261.209 64.8825 261.807 65.3585 262.292C65.8345 262.768 66.4225 263.006 67.1225 263.006ZM73.8959 258.176C74.2972 257.308 75.0252 256.874 76.0799 256.874V258.148C75.4826 258.12 74.9692 258.279 74.5399 258.624C74.1106 258.969 73.8959 259.525 73.8959 260.29V264H72.6779V257H73.8959V258.176ZM82.6848 254.2H83.9028V264H82.6848V262.796C82.0782 263.72 81.1962 264.182 80.0388 264.182C79.0588 264.182 78.2235 263.827 77.5328 263.118C76.8422 262.399 76.4968 261.527 76.4968 260.5C76.4968 259.473 76.8422 258.605 77.5328 257.896C78.2235 257.177 79.0588 256.818 80.0388 256.818C81.1962 256.818 82.0782 257.28 82.6848 258.204V254.2ZM80.1928 263.006C80.9022 263.006 81.4948 262.768 81.9708 262.292C82.4468 261.807 82.6848 261.209 82.6848 260.5C82.6848 259.791 82.4468 259.198 81.9708 258.722C81.4948 258.237 80.9022 257.994 80.1928 257.994C79.4928 257.994 78.9048 258.237 78.4288 258.722C77.9528 259.198 77.7148 259.791 77.7148 260.5C77.7148 261.209 77.9528 261.807 78.4288 262.292C78.9048 262.768 79.4928 263.006 80.1928 263.006ZM92.5382 264.182C91.6236 264.182 90.8396 263.967 90.1862 263.538C89.5422 263.109 89.0896 262.521 88.8282 261.774L89.9482 261.13C90.3309 262.315 91.2036 262.908 92.5662 262.908C93.2382 262.908 93.7516 262.773 94.1062 262.502C94.4609 262.222 94.6382 261.853 94.6382 261.396C94.6382 260.929 94.4609 260.579 94.1062 260.346C93.7516 260.113 93.1589 259.865 92.3282 259.604C91.9176 259.473 91.6049 259.371 91.3902 259.296C91.1756 259.212 90.9049 259.091 90.5782 258.932C90.2609 258.764 90.0229 258.596 89.8642 258.428C89.7056 258.251 89.5609 258.022 89.4302 257.742C89.3089 257.462 89.2482 257.145 89.2482 256.79C89.2482 255.941 89.5469 255.269 90.1442 254.774C90.7416 254.27 91.4696 254.018 92.3282 254.018C93.1029 254.018 93.7749 254.214 94.3442 254.606C94.9229 254.998 95.3569 255.516 95.6462 256.16L94.5542 256.79C94.1342 255.782 93.3922 255.278 92.3282 255.278C91.7962 255.278 91.3669 255.409 91.0402 255.67C90.7136 255.931 90.5502 256.286 90.5502 256.734C90.5502 257.163 90.7042 257.49 91.0122 257.714C91.3202 257.938 91.8522 258.171 92.6082 258.414C92.8789 258.498 93.0702 258.559 93.1822 258.596C93.2942 258.633 93.4669 258.699 93.7002 258.792C93.9429 258.885 94.1202 258.96 94.2322 259.016C94.3442 259.072 94.4936 259.151 94.6802 259.254C94.8762 259.357 95.0209 259.455 95.1142 259.548C95.2076 259.641 95.3149 259.758 95.4362 259.898C95.5669 260.029 95.6602 260.164 95.7162 260.304C95.7722 260.444 95.8189 260.607 95.8562 260.794C95.9029 260.971 95.9262 261.163 95.9262 261.368C95.9262 262.227 95.6136 262.913 94.9882 263.426C94.3629 263.93 93.5462 264.182 92.5382 264.182ZM102.172 257H103.39V264H102.172V262.992C101.677 263.785 100.921 264.182 99.904 264.182C99.0826 264.182 98.4246 263.925 97.93 263.412C97.4353 262.889 97.188 262.185 97.188 261.298V257H98.406V261.228C98.406 261.797 98.56 262.241 98.868 262.558C99.176 262.866 99.6006 263.02 100.142 263.02C100.749 263.02 101.239 262.833 101.612 262.46C101.985 262.077 102.172 261.494 102.172 260.71V257ZM109.108 256.818C110.088 256.818 110.924 257.177 111.614 257.896C112.305 258.605 112.65 259.473 112.65 260.5C112.65 261.527 112.305 262.399 111.614 263.118C110.924 263.827 110.088 264.182 109.108 264.182C107.951 264.182 107.069 263.72 106.462 262.796V266.8H105.244V257H106.462V258.204C107.069 257.28 107.951 256.818 109.108 256.818ZM108.954 263.006C109.654 263.006 110.242 262.768 110.718 262.292C111.194 261.807 111.432 261.209 111.432 260.5C111.432 259.791 111.194 259.198 110.718 258.722C110.242 258.237 109.654 257.994 108.954 257.994C108.245 257.994 107.652 258.237 107.176 258.722C106.7 259.198 106.462 259.791 106.462 260.5C106.462 261.209 106.7 261.807 107.176 262.292C107.652 262.768 108.245 263.006 108.954 263.006ZM117.968 256.818C118.948 256.818 119.783 257.177 120.474 257.896C121.164 258.605 121.51 259.473 121.51 260.5C121.51 261.527 121.164 262.399 120.474 263.118C119.783 263.827 118.948 264.182 117.968 264.182C116.81 264.182 115.928 263.72 115.322 262.796V266.8H114.104V257H115.322V258.204C115.928 257.28 116.81 256.818 117.968 256.818ZM117.814 263.006C118.514 263.006 119.102 262.768 119.578 262.292C120.054 261.807 120.292 261.209 120.292 260.5C120.292 259.791 120.054 259.198 119.578 258.722C119.102 258.237 118.514 257.994 117.814 257.994C117.104 257.994 116.512 258.237 116.036 258.722C115.56 259.198 115.322 259.791 115.322 260.5C115.322 261.209 115.56 261.807 116.036 262.292C116.512 262.768 117.104 263.006 117.814 263.006ZM128.871 263.118C128.152 263.827 127.28 264.182 126.253 264.182C125.226 264.182 124.354 263.827 123.635 263.118C122.926 262.409 122.571 261.536 122.571 260.5C122.571 259.464 122.926 258.591 123.635 257.882C124.354 257.173 125.226 256.818 126.253 256.818C127.28 256.818 128.152 257.173 128.871 257.882C129.59 258.591 129.949 259.464 129.949 260.5C129.949 261.536 129.59 262.409 128.871 263.118ZM126.253 262.992C126.953 262.992 127.541 262.754 128.017 262.278C128.493 261.802 128.731 261.209 128.731 260.5C128.731 259.791 128.493 259.198 128.017 258.722C127.541 258.246 126.953 258.008 126.253 258.008C125.562 258.008 124.979 258.246 124.503 258.722C124.027 259.198 123.789 259.791 123.789 260.5C123.789 261.209 124.027 261.802 124.503 262.278C124.979 262.754 125.562 262.992 126.253 262.992ZM132.603 258.176C133.004 257.308 133.732 256.874 134.787 256.874V258.148C134.19 258.12 133.676 258.279 133.247 258.624C132.818 258.969 132.603 259.525 132.603 260.29V264H131.385V257H132.603V258.176ZM139.951 258.176H138.089V261.97C138.089 262.315 138.154 262.563 138.285 262.712C138.425 262.852 138.635 262.927 138.915 262.936C139.195 262.936 139.54 262.927 139.951 262.908V264C138.887 264.14 138.107 264.056 137.613 263.748C137.118 263.431 136.871 262.838 136.871 261.97V258.176H135.485V257H136.871V255.404L138.089 255.04V257H139.951V258.176Z" fill="black"/>
<g clip-path="url(#clip4_1_246)">
<path d="M14.6667 307.387V308C14.6659 309.438 14.2003 310.836 13.3396 311.988C12.4788 313.139 11.2689 313.982 9.89025 314.389C8.51163 314.797 7.03818 314.748 5.68966 314.25C4.34113 313.752 3.18978 312.831 2.40732 311.625C1.62485 310.419 1.2532 308.992 1.34779 307.558C1.44239 306.123 1.99815 304.758 2.9322 303.665C3.86625 302.572 5.12853 301.81 6.5308 301.493C7.93307 301.177 9.40019 301.322 10.7133 301.907" stroke="#005AE2" stroke-width="2" stroke-linecap="round" stroke-linejoin="round"/>
<path d="M14.6667 302.667L8 309.34L6 307.34" stroke="#005AE2" stroke-width="2" stroke-linecap="round" stroke-linejoin="round"/>
</g>
<path d="M31.5323 312L30.7343 309.802H26.3243L25.5263 312H24.1403L27.7943 302.2H29.2643L32.9183 312H31.5323ZM26.7723 308.584H30.2863L28.5223 303.754L26.7723 308.584ZM39.5804 302.2H40.7984V312H39.5804V310.796C38.9737 311.72 38.0917 312.182 36.9344 312.182C35.9544 312.182 35.119 311.827 34.4284 311.118C33.7377 310.399 33.3924 309.527 33.3924 308.5C33.3924 307.473 33.7377 306.605 34.4284 305.896C35.119 305.177 35.9544 304.818 36.9344 304.818C38.0917 304.818 38.9737 305.28 39.5804 306.204V302.2ZM37.0884 311.006C37.7977 311.006 38.3904 310.768 38.8664 310.292C39.3424 309.807 39.5804 309.209 39.5804 308.5C39.5804 307.791 39.3424 307.198 38.8664 306.722C38.3904 306.237 37.7977 305.994 37.0884 305.994C36.3884 305.994 35.8004 306.237 35.3244 306.722C34.8484 307.198 34.6104 307.791 34.6104 308.5C34.6104 309.209 34.8484 309.807 35.3244 310.292C35.8004 310.768 36.3884 311.006 37.0884 311.006ZM42.7697 308.29V307.114H47.8797V308.29H42.7697ZM50.8988 306.89C50.8988 307.161 51.0341 307.38 51.3048 307.548C51.5755 307.707 51.9021 307.837 52.2848 307.94C52.6675 308.033 53.0501 308.145 53.4328 308.276C53.8155 308.397 54.1421 308.612 54.4128 308.92C54.6835 309.219 54.8188 309.606 54.8188 310.082C54.8188 310.717 54.5715 311.225 54.0768 311.608C53.5915 311.991 52.9661 312.182 52.2008 312.182C51.5195 312.182 50.9361 312.033 50.4508 311.734C49.9655 311.435 49.6201 311.039 49.4148 310.544L50.4648 309.942C50.5768 310.278 50.7868 310.544 51.0948 310.74C51.4028 310.936 51.7715 311.034 52.2008 311.034C52.6021 311.034 52.9335 310.959 53.1948 310.81C53.4561 310.651 53.5868 310.409 53.5868 310.082C53.5868 309.811 53.4515 309.597 53.1808 309.438C52.9101 309.27 52.5835 309.139 52.2008 309.046C51.8181 308.943 51.4355 308.827 51.0528 308.696C50.6701 308.565 50.3435 308.351 50.0728 308.052C49.8021 307.753 49.6668 307.371 49.6668 306.904C49.6668 306.297 49.9001 305.798 50.3668 305.406C50.8428 305.014 51.4355 304.818 52.1448 304.818C52.7141 304.818 53.2181 304.949 53.6568 305.21C54.1048 305.462 54.4408 305.817 54.6648 306.274L53.6428 306.848C53.3908 306.251 52.8915 305.952 52.1448 305.952C51.7995 305.952 51.5055 306.036 51.2628 306.204C51.0201 306.363 50.8988 306.591 50.8988 306.89ZM61.0226 305H62.2406V312H61.0226V310.992C60.5279 311.785 59.7719 312.182 58.7546 312.182C57.9332 312.182 57.2752 311.925 56.7806 311.412C56.2859 310.889 56.0386 310.185 56.0386 309.298V305H57.2566V309.228C57.2566 309.797 57.4106 310.241 57.7186 310.558C58.0266 310.866 58.4512 311.02 58.9926 311.02C59.5992 311.02 60.0892 310.833 60.4626 310.46C60.8359 310.077 61.0226 309.494 61.0226 308.71V305ZM67.9589 304.818C68.9389 304.818 69.7742 305.177 70.4649 305.896C71.1556 306.605 71.5009 307.473 71.5009 308.5C71.5009 309.527 71.1556 310.399 70.4649 311.118C69.7742 311.827 68.9389 312.182 67.9589 312.182C66.8016 312.182 65.9196 311.72 65.3129 310.796V314.8H64.0949V305H65.3129V306.204C65.9196 305.28 66.8016 304.818 67.9589 304.818ZM67.8049 311.006C68.5049 311.006 69.0929 310.768 69.5689 310.292C70.0449 309.807 70.2829 309.209 70.2829 308.5C70.2829 307.791 70.0449 307.198 69.5689 306.722C69.0929 306.237 68.5049 305.994 67.8049 305.994C67.0956 305.994 66.5029 306.237 66.0269 306.722C65.5509 307.198 65.3129 307.791 65.3129 308.5C65.3129 309.209 65.5509 309.807 66.0269 310.292C66.5029 310.768 67.0956 311.006 67.8049 311.006ZM76.8183 304.818C77.7983 304.818 78.6336 305.177 79.3243 305.896C80.0149 306.605 80.3603 307.473 80.3603 308.5C80.3603 309.527 80.0149 310.399 79.3243 311.118C78.6336 311.827 77.7983 312.182 76.8183 312.182C75.6609 312.182 74.7789 311.72 74.1723 310.796V314.8H72.9543V305H74.1723V306.204C74.7789 305.28 75.6609 304.818 76.8183 304.818ZM76.6643 311.006C77.3643 311.006 77.9523 310.768 78.4283 310.292C78.9043 309.807 79.1423 309.209 79.1423 308.5C79.1423 307.791 78.9043 307.198 78.4283 306.722C77.9523 306.237 77.3643 305.994 76.6643 305.994C75.9549 305.994 75.3623 306.237 74.8863 306.722C74.4103 307.198 74.1723 307.791 74.1723 308.5C74.1723 309.209 74.4103 309.807 74.8863 310.292C75.3623 310.768 75.9549 311.006 76.6643 311.006ZM87.7216 311.118C87.003 311.827 86.1303 312.182 85.1036 312.182C84.077 312.182 83.2043 311.827 82.4856 311.118C81.7763 310.409 81.4216 309.536 81.4216 308.5C81.4216 307.464 81.7763 306.591 82.4856 305.882C83.2043 305.173 84.077 304.818 85.1036 304.818C86.1303 304.818 87.003 305.173 87.7216 305.882C88.4403 306.591 88.7996 307.464 88.7996 308.5C88.7996 309.536 88.4403 310.409 87.7216 311.118ZM85.1036 310.992C85.8036 310.992 86.3916 310.754 86.8676 310.278C87.3436 309.802 87.5816 309.209 87.5816 308.5C87.5816 307.791 87.3436 307.198 86.8676 306.722C86.3916 306.246 85.8036 306.008 85.1036 306.008C84.413 306.008 83.8296 306.246 83.3536 306.722C82.8776 307.198 82.6396 307.791 82.6396 308.5C82.6396 309.209 82.8776 309.802 83.3536 310.278C83.8296 310.754 84.413 310.992 85.1036 310.992ZM91.4535 306.176C91.8549 305.308 92.5829 304.874 93.6375 304.874V306.148C93.0402 306.12 92.5269 306.279 92.0975 306.624C91.6682 306.969 91.4535 307.525 91.4535 308.29V312H90.2355V305H91.4535V306.176ZM98.8013 306.176H96.9393V309.97C96.9393 310.315 97.0047 310.563 97.1353 310.712C97.2753 310.852 97.4853 310.927 97.7653 310.936C98.0453 310.936 98.3907 310.927 98.8013 310.908V312C97.7373 312.14 96.958 312.056 96.4633 311.748C95.9687 311.431 95.7213 310.838 95.7213 309.97V306.176H94.3353V305H95.7213V303.404L96.9393 303.04V305H98.8013V306.176ZM100.742 309.06C100.863 309.685 101.148 310.171 101.596 310.516C102.053 310.861 102.613 311.034 103.276 311.034C104.2 311.034 104.872 310.693 105.292 310.012L106.328 310.6C105.647 311.655 104.62 312.182 103.248 312.182C102.137 312.182 101.232 311.837 100.532 311.146C99.8412 310.446 99.4959 309.564 99.4959 308.5C99.4959 307.445 99.8365 306.568 100.518 305.868C101.199 305.168 102.081 304.818 103.164 304.818C104.191 304.818 105.026 305.182 105.67 305.91C106.323 306.629 106.65 307.497 106.65 308.514C106.65 308.691 106.636 308.873 106.608 309.06H100.742ZM103.164 305.966C102.511 305.966 101.969 306.153 101.54 306.526C101.111 306.89 100.845 307.38 100.742 307.996H105.418C105.315 307.333 105.054 306.829 104.634 306.484C104.214 306.139 103.724 305.966 103.164 305.966ZM113.832 302.2H115.05V312H113.832V310.796C113.226 311.72 112.344 312.182 111.186 312.182C110.206 312.182 109.371 311.827 108.68 311.118C107.99 310.399 107.644 309.527 107.644 308.5C107.644 307.473 107.99 306.605 108.68 305.896C109.371 305.177 110.206 304.818 111.186 304.818C112.344 304.818 113.226 305.28 113.832 306.204V302.2ZM111.34 311.006C112.05 311.006 112.642 310.768 113.118 310.292C113.594 309.807 113.832 309.209 113.832 308.5C113.832 307.791 113.594 307.198 113.118 306.722C112.642 306.237 112.05 305.994 111.34 305.994C110.64 305.994 110.052 306.237 109.576 306.722C109.1 307.198 108.862 307.791 108.862 308.5C108.862 309.209 109.1 309.807 109.576 310.292C110.052 310.768 110.64 311.006 111.34 311.006Z" fill="black"/>
<defs>
<clipPath id="clip0_1_246">
<rect width="16" height="16" fill="white" transform="translate(0 108)"/>
</clipPath>
<clipPath id="clip1_1_246">
<rect width="16" height="16" fill="white" transform="translate(0 156)"/>
</clipPath>
<clipPath id="clip2_1_246">
<rect width="16" height="16" fill="white" transform="translate(0 204)"/>
</clipPath>
<clipPath id="clip3_1_246">
<rect width="16" height="16" fill="white" transform="translate(0 252)"/>
</clipPath>
<clipPath id="clip4_1_246">
<rect width="16" height="16" fill="white" transform="translate(0 300)"/>
</clipPath>
</defs>
</svg>
